PathFileType	4	(X/Y/Z)	8_coords_data.trc
DataRate	CameraRate	NumFrames	NumMarkers	Units	OrigDataRate	OrigDataStartFrame	OrigNumFrames
30.0	30.0	6	21	m	30.0	11	62
Frame#	Time	THUMB_TIP	THUMB_IP	THUMB_MCP	THUMB_CMC	INDEX_TIP	INDEX_DIP	INDEX_PIP	INDEX_MCP	MIDDLE_TIP	MIDDLE_DIP	MIDDLE_PIP	MIDDLE_MCP	RING_TIP	RING_DIP	RING_PIP	RING_MCP	PINKY_TIP	PINKY_DIP	PINKY_PIP	PINKY_MCP	WRIST
X1	Y1	Z1	X2	Y2	Z2	X3	Y3	Z3	X4	Y4	Z4	X5	Y5	Z5	X6	Y6	Z6	X7	Y7	Z7	X8	Y8	Z8	X9	Y9	Z9	X10	Y10	Z10	X11	Y11	Z11	X12	Y12	Z12	X13	Y13	Z13	X14	Y14	Z14	X15	Y15	Z15	X16	Y16	Z16	X17	Y17	Z17	X18	Y18	Z18	X19	Y19	Z19	X20	Y20	Z20	X21	Y21	Z21
9	0.33333333333333187	0.4921488293182934	-0.018614654815123477	-0.1709613727803071	0.4854024008539384	-0.023765867445519007	-0.1496083703822415	0.47570969626455994	-0.029836599898687366	-0.12065983526861113	0.47355927519636676	-0.03328680646174231	-0.07623729860194017	0.5669734588743565	0.021697680361117855	-0.1774027100684607	0.5538458862234087	0.016934612528940574	-0.16587101370061583	0.5350305216396676	0.012386915985744151	-0.1498301176928518	0.5080340230365453	-0.0004854538658187746	-0.11951300616196553	0.5921000141298172	0.042978655179309655	-0.14368679181662344	0.576985217030869	0.0364610688378606	-0.13613272159326806	0.5517795369728853	0.029369457283849543	-0.12333458546406595	0.5179395605686659	0.009709854487560232	-0.10178223209247328	0.6019123005198667	0.03864548745499963	-0.10600704934128835	0.5852903833557247	0.034596514094083486	-0.10032218483006256	0.5621092324899091	0.029591916275156116	-0.09272164378306547	0.5289308024419008	0.008526850796563012	-0.08322555880387444	0.603961100306061	0.01113236817104779	-0.055588894318584936	0.5869553936181375	0.009507352648505885	-0.05666836854051349	0.566108586559392	0.008057681214900025	-0.05869841957189942	0.5312863261848361	0.0003921659249361831	-0.06413289367212016	0.4622830810018609	-0.023011742144276925	-0.051989820119430985
10	0.3666666666666651	0.4921349078481094	-0.01868815453000694	-0.1709657249586888	0.48540284042954307	-0.02382988625510485	-0.14960590606575336	0.4757119889842365	-0.0298815764900191	-0.12065276386036144	0.4735603971582999	-0.03330668822715055	-0.07622834194850386	0.5670214386903977	0.021768189708855634	-0.1773286153933452	0.5538796228723017	0.01700471119384872	-0.16581332341092853	0.5350556172900289	0.01243222962191981	-0.1497896203709651	0.5080495360323704	-0.0005085953550389988	-0.11951020957715236	0.592142628971342	0.04295686468962412	-0.14363971722587632	0.5770211820149937	0.03644341055560363	-0.1360953976945763	0.5518089304635233	0.029346568198261647	-0.12331311502439507	0.517955927083415	0.009695790709151386	-0.10177317474546543	0.601931945854576	0.03862864643318953	-0.1059926478218301	0.5853109671911776	0.03457671368748605	-0.10030714790580203	0.5621293107038129	0.029567451851405746	-0.09271122285618422	0.5289448933388644	0.00851553196155419	-0.08320691082952025	0.6039702368547213	0.011106475248810588	-0.05553084217025028	0.5869647906005702	0.00948435818305382	-0.05661874562284008	0.5661184608160841	0.008035233611354498	-0.05865408134260397	0.5312983121292748	0.00037149458131735535	-0.06410456760604744	0.4622830810018609	-0.023011742144276925	-0.051989820119430985
11	0.39999999999999825	0.4921505101351351	-0.018750255879706246	-0.17096112269655656	0.48541974313808467	-0.02388274601437601	-0.1495986715111487	0.4757182015211623	-0.0299167223039023	-0.12064541227505299	0.47356934157860786	-0.03331868334763255	-0.07621907929556632	0.5670603671559024	0.02188726650381745	-0.17724560095334888	0.5539100690341696	0.01711010014656067	-0.16574567308815566	0.5350785419937685	0.012500340766558482	-0.1497415004827028	0.5080628814180358	-0.0005221467806574287	-0.11950567742892426	0.5921861966815806	0.04293961228390597	-0.14358973197908098	0.5770596176571237	0.03642882987275242	-0.13605339869216543	0.5518426585287078	0.029322212645720547	-0.1232858416077321	0.5179685156478404	0.009687314537539238	-0.10176466270489504	0.6019398955065468	0.038628529114344556	-0.10598895475444559	0.5853205916527768	0.034570011809576306	-0.10030325543923685	0.5621402397183524	0.029551716655135563	-0.09270931200126337	0.5289579929022117	0.008501962454877332	-0.0831926330457961	0.6039742572712742	0.011108484735337099	-0.055501378556780834	0.5869690709356367	0.009485071532604916	-0.05659140941113372	0.5661230479296281	0.008028952078487639	-0.05862489409716054	0.5313068405837172	0.0003554844342683605	-0.0640868581541334	0.4622830810018609	-0.023011742144276925	-0.051989820119430985
12	0.43333333333333146	0.4921904245006832	-0.018799004401580555	-0.17094640872509023	0.4854334419223276	-0.0239256316087314	-0.14959082678699492	0.4757153713978064	-0.029947475182048988	-0.12064058490097734	0.4735760223959423	-0.033327688588251525	-0.0762121329453132	0.5671207556279892	0.02199798605852632	-0.17714399677996484	0.5539596193346956	0.017203729486722552	-0.16566359629073707	0.535114642366243	0.012560276868481157	-0.14968501613351903	0.5080761842646253	-0.0005338356341774153	-0.1195005483519796	0.5922318534903741	0.04289906944387101	-0.14355093582669	0.5770982668592786	0.03639632951879146	-0.13602173074607898	0.5518740975791289	0.029290457263808967	-0.12326800918638414	0.5179855176931583	0.009667577012282047	-0.10175860089730204	0.601946556910461	0.038612699053301225	-0.10599276375518035	0.5853279347638409	0.03455404570884357	-0.10030516927443589	0.5621469863424849	0.029538632421828526	-0.09271114275045839	0.5289678631203094	0.008487901399082731	-0.08318573779236305	0.6039757747814447	0.011112994264953047	-0.05548483198045795	0.5869705086796084	0.00949239241397648	-0.05657779787487044	0.5661246252635191	0.008030875690408279	-0.05860884008751466	0.5313126481563152	0.0003430967498495585	-0.06407763847917353	0.462283081001861	-0.023011742144276925	-0.051989820119430985
13	0.4666666666666647	0.49231430279474575	-0.018865504546563994	-0.17091261472456018	0.4854992367247095	-0.0239743393969446	-0.14957123049268378	0.4757432318516033	-0.02998543067413384	-0.12063151469288313	0.47358917837424774	-0.03333784297609954	-0.07620166678211121	0.5672511101988663	0.022037424233901315	-0.17700494407978934	0.5540689073129641	0.01723420884604987	-0.16555249242030534	0.5351986426817485	0.012574066707642051	-0.14960865282635138	0.508114759147228	-0.0005672548190561733	-0.11948548872925718	0.5923158944821182	0.042819248927011166	-0.1434880464966847	0.5771734188663381	0.03632584428001007	-0.13596866299031868	0.5519380852553737	0.029225033489446606	-0.12323422253696747	0.5180268017576392	0.009622881035060926	-0.10174170310132874	0.601989518075377	0.038550219177089784	-0.10595551517189855	0.5853674643785484	0.03449742363277486	-0.1002737743140511	0.562181283979315	0.029491735674106456	-0.09268930956334831	0.5289928446439262	0.008454929774257991	-0.08316559568622445	0.6039852789517353	0.011084158239934472	-0.05542634758705345	0.586979863775428	0.00947086646669093	-0.05652777590328656	0.5661346801213348	0.008005333991427332	-0.058563101919205496	0.5313270941745106	0.0003129453551070638	-0.06405332674358749	0.4622830810018608	-0.023011742144276925	-0.051989820119430985
14	0.4999999999999978	0.4924664348418626	-0.01894624331263406	-0.17087074585625692	0.4855823239927395	-0.024035540212576922	-0.14954686077681567	0.47578020873891447	-0.030031272845271295	-0.12061954277552189	0.47360117787536204	-0.033354952070987376	-0.07618875411607723	0.5673884266415956	0.022062599562701846	-0.1768635526252611	0.554184608164501	0.017250062110605424	-0.165439951577601	0.5352871795020566	0.012577776913617056	-0.1495318789732334	0.5081517599526858	-0.0006013887506260973	-0.11947169447156974	0.5924044928862593	0.04272807553538649	-0.14342558775770678	0.5772546575442146	0.03624168155822538	-0.13591498310282177	0.5520061908478751	0.029153520130782096	-0.12319954181821285	0.5180692596714163	0.009576860856297498	-0.10172427616269536	0.6020434176752905	0.03847563623721706	-0.10590351588778385	0.5854164208696718	0.03443021080955344	-0.10023099349160386	0.5622239285092635	0.02943551674582745	-0.09265858909655339	0.5290233847751674	0.008415501715580587	-0.08313999162168462	0.6039968325546998	0.011050991997432646	-0.05536383624649466	0.586990962471026	0.009448196504939776	-0.05647353409115835	0.5661464091919729	0.007982682377009165	-0.058515319079239514	0.5313440332019851	0.00027876033144036416	-0.06402237469611133	0.4622830810018609	-0.023011742144276925	-0.051989820119430985
